<svg xmlns="http://www.w3.org/2000/svg" viewBox="0 0 1500 956.82"><path d="M177.44 506h59.08v209q31.5-28.37 69.57-28.36 43.34 0 69.32 28.1 22.05 24.42 22.06 78v156.73h-59.08V798.23q0-30.72-10.9-44.5t-35.05-13.79q-31 0-43.58 19.17-12.35 19.44-12.34 66.69v123.67h-59.08zM617.8 693.73h59.34v255.74H617.8v-26.78q-36.49 34.13-78.51 34.13-53 0-87.69-38.33-34.41-39.12-34.4-97.68 0-57.49 34.4-95.83t86.12-38.34q44.63 0 80.08 36.76zM477.59 820.81q0 36.77 19.69 59.87 20.22 23.37 50.94 23.32 32.82 0 53-22.58 20.21-23.36 20.21-59.34t-20.21-59.33q-20.22-22.8-52.48-22.81-30.45 0-50.93 23.11-20.22 23.37-20.22 57.76zM897.21 506h59.33v443.47h-59.33v-26.78q-34.94 34.13-79 34.13-52.53 0-87.18-38.33-34.39-39.12-34.39-97.68 0-57.24 34.39-95.57 34.14-38.6 85.86-38.6 44.89 0 80.35 36.76zM757 820.81q0 36.77 19.69 59.87 20.22 23.37 50.94 23.36 32.82 0 53-22.58 20.21-23.36 20.21-59.34t-20.21-59.33q-20.24-22.85-52.52-22.85-30.45 0-50.94 23.11Q757 786.42 757 820.81zM1221 835.52h-183.28q2.35 31.5 20.48 50.15 18.12 18.33 46.47 18.33 22.07 0 36.5-10.5 14.17-10.5 32.29-38.86l49.89 27.83a197.94 197.94 0 0 1-24.42 33.74 129.62 129.62 0 0 1-27.57 23.11 110.45 110.45 0 0 1-31.77 13.26 154.71 154.71 0 0 1-37 4.2q-57.24 0-91.89-36.76Q976 883 976 821.86q0-60.65 33.61-98.2 33.87-37 89.79-37 56.44 0 89.27 36 32.57 35.71 32.56 99zm-60.65-48.32q-12.35-47.2-59.62-47.26a61.14 61.14 0 0 0-20.21 3.29 57.94 57.94 0 0 0-17.2 9.45 59.91 59.91 0 0 0-13.26 14.83 68.72 68.72 0 0 0-8.4 19.69zM1391.17 737.32l-48.84 26q-11.55-23.62-28.62-23.63a19.72 19.72 0 0 0-13.91 5.38 18 18 0 0 0-5.78 13.79q0 14.7 34.14 29.14 47 20.22 63.27 37.29t16.28 45.94q0 37-27.3 62-26.54 23.63-64.07 23.63-64.33 0-91.11-62.75l50.41-23.37q10.5 18.38 16 23.37a36.53 36.53 0 0 0 25.73 10q29.94 0 29.93-27.3 0-15.75-23.1-29.41-8.94-4.46-17.86-8.66t-18.09-8.74q-25.74-12.6-36.24-25.2-13.4-16-13.39-41.23 0-33.33 22.84-55.13 23.37-21.8 56.72-21.8 49.1 0 72.99 50.68zM151.14 825.28Q134.87 808.21 87.86 788q-34.12-14.43-34.13-29.14a18 18 0 0 1 5.78-13.79 19.68 19.68 0 0 1 13.91-5.38q17.07 0 28.62 23.63l48.84-26q-23.9-50.67-73-50.68-33.36 0-56.72 21.8A71 71 0 0 0 0 746.49v33.68a56 56 0 0 0 11.72 24.63Q22.22 817.4 48 830q9.19 4.47 18.12 8.67t17.85 8.66Q107 861 107 876.74 107 904 77.1 904a36.53 36.53 0 0 1-25.73-10q-5.52-5-16-23.37L0 887.09v33.52q27.2 36.2 76.05 36.21 37.55 0 64.06-23.63 27.31-24.95 27.31-62 0-28.84-16.28-45.91zM59.18 242.87v200.6H.11V94h59.07v93.73h45.95v55.14zM113.05 0h59.08v209q31.5-28.35 69.58-28.36 43.32 0 69.31 28.1 22.07 24.42 22.06 78v156.73H274V292.23q0-30.72-10.9-44.5t-35.05-13.79q-31 0-43.58 19.17-12.34 19.44-12.34 66.69v123.67h-59.08zM597.78 329.52H414.51Q416.88 361 435 379.67 453.11 398 481.47 398q22 0 36.49-10.5 14.19-10.5 32.3-38.86l49.88 27.83a198.47 198.47 0 0 1-24.41 33.74 129.87 129.87 0 0 1-27.57 23.11 110.69 110.69 0 0 1-31.77 13.26 154.71 154.71 0 0 1-37 4.2q-57.25 0-91.9-36.76-34.67-37-34.66-98.2 0-60.65 33.61-98.2 33.87-37 89.8-37 56.44 0 89.27 36Q598 252.33 598 315.6zm-60.65-48.32q-12.35-47.25-59.6-47.26a61.16 61.16 0 0 0-20.22 3.29 57.94 57.94 0 0 0-17.2 9.45 60.11 60.11 0 0 0-13.26 14.83 69.28 69.28 0 0 0-8.4 19.69zM866.69 437.43q0 18.12-1.18 31.9a222.52 222.52 0 0 1-3.29 24.29q-6.3 28.88-24.68 49.62-34.65 39.91-95.31 39.91-51.19 0-84.28-27.57-34.14-28.35-39.38-78.5h59.34q3.4 18.9 11.29 29.14 18.38 23.89 53.56 23.89 64.85 0 64.85-79.55v-35.71q-35.19 36-81.13 36-52.26 0-85.6-37.81-33.6-38.33-33.6-95.83 0-55.93 31.24-95.05 33.6-41.49 88.75-41.49 48.3 0 80.34 36v-28.94h59.08zM810 316.12q0-37.28-20-59.6-20.22-22.84-51.73-22.84-33.6 0-53 24.94-17.6 22.32-17.59 57.77 0 34.92 17.59 57.24 19.15 24.42 53 24.41t53.57-24.68Q810 351.06 810 316.12zM898.24 187.73h59.07v22.84q16.29-17.06 28.89-23.36 12.85-6.57 30.45-6.57 23.37 0 48.84 15.23l-27 54.09q-16.82-12.08-32.83-12.08-48.3 0-48.31 73v132.6h-59.11zM1285.56 329.52h-183.27q2.37 31.5 20.48 50.15 18.12 18.33 46.47 18.33 22.07 0 36.5-10.5 14.17-10.5 32.3-38.86l49.88 27.83a197.94 197.94 0 0 1-24.42 33.74 129.62 129.62 0 0 1-27.57 23.11 110.45 110.45 0 0 1-31.77 13.26 154.71 154.71 0 0 1-37 4.2q-57.24 0-91.89-36.76-34.66-37-34.66-98.2 0-60.65 33.61-98.2 33.87-37 89.79-37 56.44 0 89.27 36 32.57 35.71 32.56 99zm-60.65-48.32q-12.35-47.25-59.61-47.26a61.14 61.14 0 0 0-20.21 3.29 57.94 57.94 0 0 0-17.2 9.45 59.91 59.91 0 0 0-13.26 14.83 68.72 68.72 0 0 0-8.4 19.69z" fill="#fff"/><path fill="#fff" d="M1500 187.73h-16.69l-72.99 147.04-78.25-147.04h-68.52l115 208.21-99.78 186.69h67.48L1500 284.64v-96.91z"/></svg>
